<svg width="1920" height="1152" viewBox="0 0 1920 1152" fill="none" xmlns="http://www.w3.org/2000/svg">
<g opacity="0.25" clip-path="url(#clip0_3556_48640)">
<mask id="mask0_3556_48640" style="mask-type:luminance" maskUnits="userSpaceOnUse" x="0" y="0" width="1920" height="1152">
<path d="M0 1152H1920V0H0V1152Z" fill="white"/>
</mask>
<g mask="url(#mask0_3556_48640)">
<path d="M1283.47 251.204C1297.85 250.06 1312.25 249.253 1326.68 248.835C1375.08 247.433 1420.98 250.755 1463.08 258.707C1509.03 267.386 1548.49 281.283 1580.34 300.014C1604.87 314.441 1625.34 332.063 1641.16 352.388C1656.03 371.496 1666.81 392.981 1673.21 416.247C1679.28 438.342 1681.34 461.813 1679.34 486.001C1677.4 509.39 1671.72 532.975 1662.45 556.096C1647.99 592.154 1625.12 630.085 1592.53 672.049C1563.52 709.397 1529.81 746.253 1497.2 781.9C1488.53 791.384 1479.56 801.192 1470.83 810.83C1445.06 839.331 1412.99 876.89 1393.72 914.702C1373.2 954.964 1369.45 989.989 1382.25 1021.77C1396.54 1057.27 1432.5 1087.29 1486.26 1108.6C1535.6 1128.16 1596.59 1138.85 1657.98 1138.69C1676.04 1138.64 1694.09 1137.84 1712.06 1136.41C1816.09 1128.14 1917.98 1098.79 2009.47 1072.43L2009.96 1073.91C1957.17 1089.12 1897.34 1106.36 1836.73 1119.22C1770.71 1133.24 1712.24 1140.12 1657.97 1140.26C1596.34 1140.42 1535.11 1129.69 1485.56 1110.04C1431.38 1088.56 1395.1 1058.23 1380.64 1022.34C1373.87 1005.51 1371.69 987.37 1374.17 968.42C1376.39 951.443 1382.45 933.157 1392.18 914.069C1411.53 876.095 1443.68 838.428 1469.53 809.855C1478.25 800.209 1487.22 790.401 1495.9 780.917C1561.2 709.531 1628.72 635.718 1660.85 555.581C1693.22 474.853 1688.82 365.663 1579.4 301.327C1518.52 265.527 1428.78 247.437 1326.71 250.39C1233.65 253.082 1141.16 272.097 1055.08 292.246C779.734 356.693 515.731 444.433 270.405 553.039C249.369 562.351 228.015 572.013 207.359 581.356C149.514 607.525 89.6942 634.582 28.6382 657.779C-39.9443 683.834 -102.517 702.008 -162.655 713.333C-202.457 720.828 -243.618 725.006 -284.998 725.755C-327.215 726.515 -367.85 723.658 -405.77 717.265C-445.594 710.549 -481.179 700.115 -511.546 686.257C-544.048 671.423 -570.068 652.849 -588.88 631.057L-587.536 630.081C-551.209 672.152 -488.241 701.77 -405.432 715.733C-330.026 728.447 -243.917 727.053 -162.974 711.808C-29.0924 686.591 90.7385 632.385 206.626 579.962C227.281 570.619 248.643 560.954 269.687 551.638C515.116 442.985 779.228 355.206 1054.69 290.737C1127.52 273.691 1204.95 257.452 1283.47 251.204Z" fill="url(#paint0_linear_3556_48640)"/>
</g>
<mask id="mask1_3556_48640" style="mask-type:luminance" maskUnits="userSpaceOnUse" x="0" y="0" width="1920" height="1152">
<path d="M0 1152H1920V0H0V1152Z" fill="white"/>
</mask>
<g mask="url(#mask1_3556_48640)">
<path d="M1285.02 239.481C1297.08 238.521 1309.19 237.803 1321.34 237.361C1368.21 235.672 1412.74 238.548 1453.68 245.913C1498.29 253.938 1536.72 267.017 1567.92 284.789C1588.23 296.428 1605.83 310.34 1620.22 326.134C1633.86 341.107 1644.75 357.906 1652.59 376.07C1667.27 410.073 1671.24 449.064 1664.08 488.831C1661.61 502.456 1657.84 516.164 1652.85 529.581C1624.15 607.199 1561.68 678.942 1501.26 748.319C1493.4 757.343 1485.27 766.678 1477.37 775.844C1456.09 800.601 1429.44 833.222 1412.09 865.988C1389.39 908.516 1385.21 944.893 1399.29 977.202C1411.96 1006.27 1440.69 1031.67 1482.37 1050.65C1521.07 1068.27 1568.8 1079.69 1620.43 1083.67C1636.07 1084.85 1651.91 1085.3 1667.52 1085.03C1785.96 1082.95 1902.91 1047.44 2006.09 1016.1L2006.59 1017.53C1903.3 1048.9 1786.23 1084.45 1667.53 1086.53C1651.86 1086.81 1635.96 1086.35 1620.26 1085.17C1594.95 1083.22 1570.3 1079.43 1546.99 1073.91C1523.11 1068.25 1501.11 1060.88 1481.62 1052C1461.25 1042.72 1443.86 1031.9 1429.93 1019.83C1415.17 1007.05 1404.35 992.904 1397.76 977.775C1383.49 945.054 1387.7 908.274 1410.61 865.343C1428.03 832.446 1454.75 799.737 1476.08 774.919C1483.98 765.749 1492.11 756.414 1499.97 747.39C1560.3 678.116 1622.69 606.481 1651.28 529.117C1656.24 515.777 1660 502.148 1662.45 488.605C1677.79 403.437 1643.01 329.617 1567.03 286.072C1507.34 252.068 1420.1 235.307 1321.39 238.866C1227.38 242.276 1135.62 262.348 1058.25 281.533C928.082 313.808 792.553 355.718 643.918 409.651C531.859 450.251 415.68 496.857 288.741 552.13C278.699 556.504 268.489 560.973 258.616 565.293C253.033 567.736 247.449 570.182 241.862 572.624C179.938 599.681 119.151 625.812 56.3326 648.103C-14.1276 673.105 -78.6702 690.078 -140.986 699.989C-147.525 701.022 -154.215 701.982 -160.862 702.842C-238.203 712.964 -319.212 710.68 -388.95 696.406C-465.785 680.682 -525.397 651.428 -561.343 611.807L-560.064 610.836C-524.348 650.203 -465.047 679.284 -388.566 694.936C-319.016 709.17 -238.222 711.448 -161.069 701.348C-154.438 700.492 -147.767 699.536 -141.243 698.503C2.15405 675.693 134.68 617.79 241.167 571.261C246.754 568.818 252.338 566.376 257.921 563.93C267.794 559.61 278.004 555.14 288.05 550.767C415.023 495.478 531.233 448.857 643.327 408.245C792.019 354.293 927.609 312.368 1057.84 280.074C1125.3 263.354 1203.7 245.951 1285.02 239.481Z" fill="url(#paint1_linear_3556_48640)"/>
</g>
<mask id="mask2_3556_48640" style="mask-type:luminance" maskUnits="userSpaceOnUse" x="0" y="0" width="1920" height="1152">
<path d="M0 1152H1920V0H0V1152Z" fill="white"/>
</mask>
<g mask="url(#mask2_3556_48640)">
<path d="M1286.62 227.706C1296.53 226.919 1306.31 226.312 1316.01 225.882C1412.02 221.689 1497.07 237.198 1555.5 269.558C1575.27 280.506 1592.48 293.654 1606.66 308.638C1620.09 322.83 1630.94 338.805 1638.9 356.116C1653.77 388.444 1658.59 425.727 1652.85 463.931C1650.86 476.98 1647.63 490.143 1643.24 503.049C1618.13 577.829 1560.87 647.33 1505.49 714.541C1498.38 723.166 1491.03 732.086 1483.91 740.834C1464.68 764.546 1440.61 795.799 1425.07 827.28C1404.93 868.045 1402.07 902.498 1416.33 932.607C1429.32 960.048 1457.6 983.798 1498.1 1001.3C1535.83 1017.6 1581.99 1027.79 1631.6 1030.78C1646.38 1031.67 1661.68 1031.86 1677.06 1031.33C1791.36 1027.5 1903.65 991.513 2002.71 959.76L2003.22 961.134C1904.05 992.922 1791.64 1028.95 1677.1 1032.79C1661.66 1033.31 1646.31 1033.13 1631.47 1032.23C1607.12 1030.77 1583.34 1027.52 1560.76 1022.58C1537.69 1017.53 1516.37 1010.81 1497.4 1002.61C1456.55 984.965 1428.01 960.962 1414.86 933.198C1407.19 916.982 1404.37 899.23 1406.5 880.433C1408.38 863.775 1413.98 846.196 1423.61 826.688C1439.23 795.081 1463.36 763.739 1482.63 739.97C1489.76 731.218 1497.11 722.298 1504.22 713.669C1559.51 646.562 1616.69 577.165 1641.72 502.631C1646.08 489.797 1649.29 476.715 1651.27 463.747C1663.57 381.943 1628.35 311.618 1554.65 270.802C1496.49 238.589 1411.76 223.152 1316.06 227.333C1221.21 231.515 1130.15 252.762 1061.42 270.806C907.753 311.149 764.429 364.437 656.729 406.35C535.826 453.271 414.298 505.303 307.073 551.207C292.762 557.335 276.538 564.278 260.414 571.086C206.281 593.931 142.007 620.169 75.7405 641.585C6.75879 663.876 -57.0466 678.61 -119.312 686.632C-125.756 687.45 -132.338 688.195 -138.873 688.84C-214.636 696.604 -294.032 692.492 -362.434 677.262C-437.687 660.505 -496.942 631.209 -533.802 592.548L-532.592 591.581C-450.912 677.259 -276.076 701.439 -139.027 687.392C-132.503 686.747 -125.94 686.006 -119.512 685.188C20.9513 667.094 149.914 616.122 259.765 569.765C275.885 562.961 292.105 556.014 306.417 549.89C413.653 503.979 535.2 451.947 656.126 405.014C763.865 363.081 907.25 309.774 1061 269.408C1107.92 257.094 1149.11 247.781 1186.95 240.946C1222.13 234.595 1255 230.221 1286.62 227.706Z" fill="url(#paint2_linear_3556_48640)"/>
</g>
<mask id="mask3_3556_48640" style="mask-type:luminance" maskUnits="userSpaceOnUse" x="0" y="0" width="1920" height="1152">
<path d="M0 1152H1920V0H0V1152Z" fill="white"/>
</mask>
<g mask="url(#mask3_3556_48640)">
<path d="M1288.53 215.872C1295.98 215.28 1303.35 214.793 1310.67 214.409C1403.48 209.601 1486.01 223.778 1543.08 254.333C1562.29 264.617 1579.1 277.02 1593.07 291.189C1606.29 304.61 1617.09 319.755 1625.18 336.206C1640.25 366.864 1645.94 402.423 1641.62 439.041C1640.14 451.31 1637.46 463.92 1633.65 476.523C1611.85 548.631 1559.72 616.103 1509.3 681.353C1503.09 689.39 1496.67 697.696 1490.45 705.832C1473.17 728.6 1451.61 758.583 1438.04 788.577C1420.45 827.48 1418.92 860.008 1433.37 888.021C1446.68 913.822 1474.51 935.918 1513.84 951.915C1550.57 966.86 1595.16 975.846 1642.78 977.896C1656.88 978.503 1671.62 978.423 1686.6 977.655C1692.38 977.363 1698.18 976.983 1703.94 976.522C1808.05 968.239 1909.37 933.909 1999.34 903.431L1999.86 904.752C1904.8 936.954 1797.06 973.454 1686.66 979.064C1671.63 979.836 1656.83 979.916 1642.69 979.31C1619.29 978.3 1596.37 975.581 1574.55 971.223C1552.29 966.776 1531.64 960.716 1513.19 953.205C1473.52 937.07 1445.44 914.74 1431.97 888.636C1424.04 873.256 1420.87 857.017 1422.28 838.992C1423.5 823.337 1428.19 806.675 1436.61 788.055C1450.24 757.934 1471.87 727.866 1489.18 705.038C1495.4 696.897 1501.82 688.587 1508.03 680.55C1558.37 615.401 1610.43 548.035 1632.15 476.166C1635.94 463.636 1638.61 451.098 1640.08 438.906C1649.3 360.601 1613.66 293.77 1542.28 255.55C1485.47 225.134 1403.24 211.022 1310.73 215.814C1237.79 219.635 1159.57 233.708 1064.59 260.097C920.533 300.117 785.139 354.88 669.539 403.068C606.56 429.218 542.681 456.87 480.911 483.612C429.877 505.703 377.104 528.547 325.406 550.297C307.397 557.873 292.64 563.998 278.965 569.566C208.217 598.359 149.807 619.179 95.1447 635.081C27.6451 654.718 -35.4154 667.217 -97.6465 673.285C-103.418 673.83 -109.712 674.345 -116.893 674.851C-153.568 677.44 -190.866 677.347 -227.75 674.586C-265.581 671.753 -301.98 666.169 -335.93 657.998C-371.515 649.431 -403.817 638.145 -431.941 624.455C-461.832 609.902 -486.842 592.691 -506.265 573.299L-505.12 572.339C-432.091 645.237 -279.739 684.928 -116.989 673.45C-109.823 672.943 -103.541 672.432 -97.7847 671.887C43.1011 658.147 171.415 611.802 278.355 568.28C292.021 562.712 306.775 556.595 324.777 549.018C376.467 527.273 429.236 504.428 480.266 482.341C542.044 455.599 605.926 427.943 668.917 401.789C784.563 353.582 920.015 298.796 1064.16 258.749C1149.74 234.979 1221.74 221.186 1288.53 215.872Z" fill="url(#paint3_linear_3556_48640)"/>
</g>
<mask id="mask4_3556_48640" style="mask-type:luminance" maskUnits="userSpaceOnUse" x="0" y="0" width="1920" height="1152">
<path d="M0 1152H1920V0H0V1152Z" fill="white"/>
</mask>
<g mask="url(#mask4_3556_48640)">
<path d="M1291.01 203.947C1295.81 203.563 1300.59 203.229 1305.34 202.937C1394.93 197.519 1474.95 210.364 1530.66 239.11C1567.23 257.984 1594.42 283.958 1611.46 316.302C1626.73 345.29 1633.27 379.128 1630.39 414.153C1629.39 425.776 1627.25 437.838 1624.05 450.003C1606.02 518.367 1559.91 582.794 1515.32 645.098C1509.28 653.55 1503.03 662.286 1496.99 670.83C1474.42 702.798 1460.24 727.178 1451.02 749.872C1435.78 787.416 1435.58 817.145 1450.42 843.434C1464.05 867.595 1491.43 888.036 1529.58 902.535C1565.31 916.118 1608.32 923.89 1653.96 925.015C1667.38 925.345 1681.57 924.996 1696.14 923.974C1802.17 916.624 1905.12 879.687 1995.96 847.101L1996.49 848.368C1905.55 880.989 1802.47 917.957 1696.23 925.334C1681.62 926.359 1667.37 926.712 1653.9 926.378C1631.46 925.825 1609.4 923.632 1588.34 919.858C1566.89 916.014 1546.92 910.611 1528.99 903.795C1490.51 889.168 1462.89 868.517 1449.09 844.071C1441.01 829.756 1437.4 814.534 1438.07 797.546C1438.64 782.893 1442.42 767.149 1449.63 749.415C1458.88 726.621 1473.11 702.16 1495.74 670.104C1501.78 661.56 1508.03 652.816 1514.08 644.365C1558.6 582.157 1604.63 517.829 1622.6 449.7C1625.79 437.604 1627.91 425.615 1628.91 414.064C1635.07 339.277 1598.98 275.94 1529.91 240.297C1474.46 211.677 1394.73 198.894 1305.42 204.297C1233.82 208.686 1156.08 223.435 1067.76 249.39C937.228 287.751 815.992 340.198 682.359 399.787C647.792 415.128 612.537 431.045 578.445 446.436C501.653 481.107 422.246 516.957 343.745 549.39C326.856 556.367 311.738 562.469 297.522 568.045C230.656 594.245 170.81 614.048 114.554 628.578C48.5405 645.632 -13.7787 655.888 -75.9714 659.943C-81.4702 660.281 -87.4836 660.573 -94.9065 660.865C-130.856 662.271 -167.375 661.142 -203.44 657.505C-240.423 653.776 -276.078 647.494 -309.413 638.827C-344.299 629.761 -376.156 618.199 -404.092 604.471C-433.721 589.91 -458.831 572.944 -478.73 554.048L-477.651 553.095C-403.086 623.917 -252.869 665.684 -94.9485 659.506C-87.5413 659.218 -81.5356 658.922 -76.0559 658.588C-71.4978 658.292 -66.9204 657.958 -62.3623 657.597C48.2258 648.8 159.751 620.56 296.946 566.8C311.151 561.229 326.261 555.131 343.142 548.157C421.62 515.732 501.012 479.886 577.796 445.222C611.892 429.828 647.151 413.911 681.718 398.57C744.94 370.377 806.948 342.955 870.493 317.4C941.682 288.769 1006.07 266.098 1067.32 248.096C1149.9 223.823 1223.26 209.339 1291.01 203.947Z" fill="url(#paint4_linear_3556_48640)"/>
</g>
<mask id="mask5_3556_48640" style="mask-type:luminance" maskUnits="userSpaceOnUse" x="0" y="0" width="1920" height="1152">
<path d="M0 1152H1920V0H0V1152Z" fill="white"/>
</mask>
<g mask="url(#mask5_3556_48640)">
<path d="M1293.12 191.98C1295.42 191.796 1297.71 191.627 1300 191.462C1386.38 185.433 1463.88 196.945 1518.23 223.883C1553.72 241.466 1580.48 265.866 1597.79 296.397C1605.71 310.39 1611.55 325.593 1615.12 341.575C1618.55 356.889 1619.9 372.932 1619.15 389.26C1618.66 400.081 1617.07 411.594 1614.44 423.474C1600.01 488.582 1559.47 550.398 1520.26 610.179C1514.73 618.608 1509.02 627.321 1503.52 635.823C1484.14 665.832 1471.58 689.775 1463.99 711.163C1451.35 746.795 1452.45 774.658 1467.45 798.846C1494.79 842.933 1572.39 871.702 1665.14 872.132C1677.9 872.19 1691.54 871.572 1705.67 870.293C1807.54 861.169 1905.85 823.768 1992.58 790.77L1993.12 791.98C1952.61 807.39 1902.2 826.567 1852.46 841.554C1798.72 857.744 1750.75 867.574 1705.79 871.602C1691.6 872.885 1677.91 873.507 1665.11 873.449C1621.27 873.246 1579.67 866.653 1544.79 854.388C1507.5 841.274 1480.33 822.301 1466.2 799.51C1450.99 774.984 1449.85 746.791 1462.62 710.783C1470.25 689.298 1482.85 665.272 1502.29 635.174C1507.79 626.668 1513.5 617.951 1519.03 609.522C1558.18 549.837 1598.65 488.121 1613.03 423.236C1615.65 411.421 1617.23 399.981 1617.72 389.225C1620.99 318.055 1584.47 258.212 1517.54 225.039C1463.42 198.22 1386.2 186.762 1300.09 192.771C1229.1 197.805 1154.14 212.812 1070.93 238.671C942.462 278.599 823.3 335.412 708.061 390.351L695.17 396.495C677.595 404.824 659.654 413.375 642.305 421.643C551.063 465.127 456.718 510.093 362.077 548.474C345.634 555.144 330.585 561.046 316.078 566.514C251.228 590.941 191.662 609.146 133.97 622.168C69.2886 636.771 7.70654 644.758 -54.2942 646.586C-60.5686 646.77 -66.9316 646.824 -72.9104 646.863C-108.119 647.093 -143.854 644.923 -179.113 640.415C-215.232 635.8 -250.146 628.811 -282.882 619.652C-317.062 610.087 -348.469 598.252 -376.232 584.478C-405.593 569.909 -430.81 553.19 -451.181 534.785L-450.164 533.844C-373.951 602.703 -225.865 646.552 -72.8989 645.549C-66.9277 645.511 -60.5764 645.457 -54.3173 645.273C62.2959 641.832 179.823 616.423 315.552 565.301C330.052 559.833 345.085 553.938 361.517 547.272C456.115 508.907 550.441 463.952 641.66 420.475C659.009 412.208 676.949 403.656 694.525 395.327L707.412 389.183C765.074 361.693 824.697 333.265 884.724 307.315C952.039 278.211 1012.81 255.348 1070.49 237.419C1151.13 212.367 1224.05 197.475 1293.12 191.98Z" fill="url(#paint5_linear_3556_48640)"/>
</g>
<mask id="mask6_3556_48640" style="mask-type:luminance" maskUnits="userSpaceOnUse" x="0" y="0" width="1920" height="1152">
<path d="M0 1152H1920V0H0V1152Z" fill="white"/>
</mask>
<g mask="url(#mask6_3556_48640)">
<path d="M1294.83 179.98C1334.26 176.843 1371.92 177.446 1406.78 181.773C1444.82 186.5 1478.14 195.544 1505.81 208.657C1540.18 224.946 1566.51 247.771 1584.07 276.491C1592.12 289.654 1598.23 304 1602.23 319.126C1606.06 333.603 1607.98 348.821 1607.93 364.361C1607.89 374.653 1606.88 385.312 1604.84 396.944C1594 458.656 1559.09 517.727 1525.32 574.851C1520.28 583.391 1515.05 592.219 1510.07 600.813C1493.55 629.279 1483.03 652.043 1476.97 672.452C1466.95 706.156 1469.35 732.149 1484.49 754.256C1512.57 795.244 1587.87 820.757 1676.32 819.248C1688.59 819.041 1701.31 818.177 1715.21 816.61C1812.91 805.716 1906.57 767.846 1989.21 734.434L1989.75 735.586C1942.38 754.744 1899.58 771.759 1855.62 786.013C1804.33 802.64 1758.46 813.058 1715.36 817.862C1701.42 819.432 1688.65 820.3 1676.33 820.507C1634.48 821.222 1594.46 815.846 1560.6 804.963C1524.52 793.366 1497.79 776.067 1483.32 754.932C1467.96 732.51 1465.51 706.202 1475.64 672.134C1481.73 651.628 1492.28 628.78 1508.85 600.23C1513.84 591.632 1519.06 582.8 1524.1 574.26C1557.82 517.228 1592.67 458.253 1603.47 396.756C1605.5 385.19 1606.51 374.595 1606.54 364.373C1606.78 296.77 1569.83 240.422 1505.17 209.775C1452.42 184.776 1377.76 174.639 1294.93 181.228C1294.87 181.232 1294.83 181.236 1294.77 181.24C1225.61 186.838 1151.37 202.555 1074.1 227.949C954.897 267.125 845.492 322.993 739.692 377.026C729.301 382.333 718.557 387.82 707.977 393.204C701.787 396.333 695.586 399.471 689.376 402.616C589.383 453.223 485.987 505.554 380.41 547.56C364.27 553.981 349.294 559.683 334.63 564.99C271.588 587.769 212.299 604.346 153.37 615.674C90.1058 627.835 29.2687 633.58 -32.6283 633.238C-38.7991 633.204 -44.9662 633.035 -50.9335 632.873C-121.232 630.957 -192.269 619.76 -256.366 600.495C-289.831 590.438 -320.793 578.326 -348.391 564.498C-377.479 549.926 -402.804 533.452 -423.655 515.531L-422.699 514.605C-343.48 582.681 -201.001 627.513 -50.8683 631.61C-44.9124 631.771 -38.7491 631.94 -32.5975 631.975C85.4403 632.628 205.402 610.333 334.138 563.819C348.791 558.52 363.752 552.825 379.876 546.408C485.395 504.429 588.761 452.113 688.724 401.517C694.933 398.376 701.131 395.239 707.321 392.109C717.9 386.726 728.644 381.242 739.031 375.935C791.974 348.898 846.72 320.939 901.986 295.43C963.963 266.822 1020.12 244.361 1073.65 226.77C1151.03 201.338 1225.39 185.602 1294.66 179.992C1294.72 179.988 1294.78 179.984 1294.83 179.98Z" fill="url(#paint6_linear_3556_48640)"/>
</g>
<mask id="mask7_3556_48640" style="mask-type:luminance" maskUnits="userSpaceOnUse" x="0" y="0" width="1920" height="1152">
<path d="M0 1152H1920V0H0V1152Z" fill="white"/>
</mask>
<g mask="url(#mask7_3556_48640)">
<path d="M1296.22 167.928C1331.74 165.102 1365.73 165.447 1397.39 168.953C1434.11 173.023 1466.4 181.256 1493.39 193.429C1526.65 208.428 1552.54 229.679 1570.34 256.586C1578.51 268.924 1584.9 282.41 1589.33 296.679C1593.57 310.319 1596.05 324.715 1596.69 339.468C1597.11 349.08 1596.63 359.202 1595.23 370.415C1587.96 428.572 1558.71 484.735 1530.43 539.048C1525.84 547.857 1521.1 556.97 1516.6 565.802C1502.92 592.701 1494.45 614.289 1489.94 633.739C1482.57 665.496 1486.26 689.622 1501.53 709.667C1530.37 747.533 1603.37 769.79 1687.5 766.365C1699.12 765.893 1711.3 764.767 1724.75 762.928C1818.28 750.26 1907.3 711.925 1985.83 678.102L1986.38 679.197C1941.36 698.585 1900.69 715.827 1858.76 730.472C1809.93 747.534 1766.15 758.539 1724.93 764.122C1711.44 765.969 1699.21 767.094 1687.54 767.571C1647.68 769.195 1609.25 765.036 1576.42 755.544C1541.54 745.46 1515.26 729.835 1500.43 710.362C1491.95 699.226 1487.05 687.073 1485.45 673.199C1484.11 661.521 1485.15 648.534 1488.64 633.497C1493.17 613.951 1501.68 592.278 1515.4 565.295C1519.9 556.455 1524.65 547.343 1529.23 538.53C1557.47 484.305 1586.67 428.237 1593.92 370.284C1595.31 359.133 1595.79 349.072 1595.37 339.522C1592.54 274.568 1556.11 223.066 1492.8 194.504C1441.34 171.295 1369.13 162.486 1289.45 169.706C1221.39 175.965 1150 191.951 1077.27 217.226C965.081 256.213 863.298 311.947 764.863 365.845C750.433 373.748 735.514 381.916 720.792 389.907C623.056 442.614 512.28 502.353 398.75 546.636C382.841 552.842 367.938 558.341 353.189 563.452C292.482 584.449 231.783 599.828 172.778 609.163C111.76 618.813 49.9476 622.419 -10.947 619.873C-16.5497 619.638 -22.2637 619.281 -27.7894 618.936L-28.9375 618.863C-97.3855 614.589 -166.851 601.61 -229.831 581.323C-262.563 570.778 -293.08 558.39 -320.532 544.505C-349.34 529.932 -374.768 513.701 -396.115 496.263L-395.22 495.353C-313.942 561.754 -173.548 608.618 -28.8262 617.657L-27.6781 617.73C-22.16 618.076 -16.4536 618.433 -10.8665 618.667C109.64 623.701 228.573 605.273 352.735 562.326C367.466 557.223 382.353 551.732 398.243 545.53C511.692 501.278 622.426 441.562 720.127 388.874C734.846 380.886 749.765 372.715 764.191 364.816C813.451 337.844 864.385 309.954 915.967 284.518C973.813 255.99 1026.43 233.615 1076.81 216.104C1149.65 190.795 1221.15 174.782 1289.33 168.511C1291.63 168.308 1293.93 168.112 1296.22 167.928Z" fill="url(#paint7_linear_3556_48640)"/>
</g>
<mask id="mask8_3556_48640" style="mask-type:luminance" maskUnits="userSpaceOnUse" x="0" y="0" width="1920" height="1152">
<path d="M0 1152H1920V0H0V1152Z" fill="white"/>
</mask>
<g mask="url(#mask8_3556_48640)">
<path d="M1297.65 155.803C1329.24 153.288 1359.57 153.399 1388 156.145C1423.39 159.559 1454.67 166.981 1480.97 178.21C1513.11 191.93 1538.56 211.606 1556.61 236.693C1564.89 248.201 1571.56 260.835 1576.43 274.24C1581.08 287.043 1584.12 300.613 1585.46 314.579C1586.32 323.515 1586.38 333.104 1585.63 343.89C1581.87 398.311 1558.29 451.383 1535.49 502.709C1531.38 511.971 1527.12 521.544 1523.14 530.795C1512.41 555.762 1505.79 576.775 1502.91 595.03C1498.15 625.216 1502.98 646.824 1518.56 665.087C1548.18 699.804 1618.88 718.805 1698.67 713.494C1709.66 712.764 1721.31 711.378 1734.29 709.259C1823.64 694.816 1908.01 656.017 1982.45 621.783L1983.01 622.82C1940.34 642.439 1901.78 659.907 1861.9 674.948C1815.53 692.443 1773.85 704.04 1734.49 710.403C1721.47 712.526 1709.78 713.916 1698.75 714.654C1660.87 717.177 1624.04 714.235 1592.26 706.144C1558.58 697.577 1532.75 683.63 1517.55 665.813C1508.95 655.733 1503.62 644.597 1501.26 631.763C1499.3 621.061 1499.42 608.996 1501.65 594.88C1504.54 576.533 1511.19 555.436 1521.95 530.38C1525.93 521.125 1530.19 511.548 1534.3 502.283C1557.07 451.045 1580.6 398.061 1584.35 343.833C1585.09 333.104 1585.04 323.573 1584.19 314.695C1578.3 253.412 1541.44 205.312 1480.42 179.262C1430.28 157.861 1360.57 150.381 1284.12 158.199C1217.37 165.127 1148.84 181.385 1080.43 206.53C973.846 245.701 878.33 301.792 785.959 356.036C768.829 366.097 751.111 376.5 733.597 386.637C629.279 446.603 526.578 503.895 417.081 545.74C401.579 551.665 386.326 557.114 371.738 561.941C312.245 581.598 251.834 595.299 192.176 602.672C132.487 610.048 71.4347 611.35 10.7205 606.535C5.53271 606.124 0.248779 605.598 -4.8623 605.091L-6.95496 604.883C-73.4446 598.302 -141.344 583.537 -203.306 562.187C-235.289 551.166 -265.36 538.501 -292.686 524.539C-321.194 509.974 -346.73 493.984 -368.587 477.015L-367.754 476.124C-284.107 541.07 -145.798 589.965 -6.80139 603.724L-4.7085 603.931C0.394897 604.438 5.6709 604.964 10.8473 605.371C133.312 615.083 251.224 600.517 371.316 560.843C385.881 556.023 401.114 550.578 416.597 544.661C526.002 502.851 628.653 445.585 732.921 385.646C750.431 375.513 768.145 365.11 785.275 355.049C831.501 327.904 879.302 299.834 927.874 274.24C982.344 245.536 1032.1 223.034 1079.97 205.439C1148.49 180.26 1217.13 163.971 1283.99 157.032C1288.57 156.575 1293.12 156.164 1297.65 155.803Z" fill="url(#paint8_linear_3556_48640)"/>
</g>
<mask id="mask9_3556_48640" style="mask-type:luminance" maskUnits="userSpaceOnUse" x="0" y="0" width="1920" height="1152">
<path d="M0 1152H1920V0H0V1152Z" fill="white"/>
</mask>
<g mask="url(#mask9_3556_48640)">
<path d="M1299.09 143.581C1326.77 141.377 1353.43 141.292 1378.6 143.331C1412.65 146.092 1442.92 152.705 1468.55 162.984C1499.57 175.43 1524.58 193.536 1542.87 216.794C1559.44 237.876 1569.99 262.398 1574.22 289.685C1575.5 297.953 1576.09 307.008 1576.02 317.364C1575.66 367.86 1557.7 417.638 1540.32 465.78C1536.58 476.148 1533.05 485.94 1529.67 495.782C1521.65 519.179 1517.13 538.978 1515.87 556.316C1514.5 575.262 1515.49 599.681 1535.58 620.505C1566.01 652.039 1634.41 667.787 1709.84 660.618C1720.21 659.635 1731.32 657.987 1743.82 655.584C1828.98 639.363 1908.71 600.099 1979.07 565.459L1979.63 566.438C1939.32 586.291 1902.87 603.982 1865.05 619.418C1821.12 637.347 1781.54 649.532 1744.05 656.674C1731.51 659.086 1720.36 660.737 1709.96 661.724C1674.06 665.137 1638.83 663.406 1608.1 656.728C1575.64 649.674 1550.25 637.405 1534.66 621.25C1514.28 600.122 1513.26 575.42 1514.66 556.258C1515.92 538.832 1520.45 518.945 1528.51 495.463C1531.89 485.614 1535.42 475.818 1539.16 465.446C1556.51 417.388 1574.44 367.691 1574.8 317.372C1574.87 307.073 1574.28 298.072 1573.01 289.858C1564.09 232.273 1526.81 187.58 1468.04 164.01C1419.21 144.426 1352.01 138.274 1278.79 146.684C1213.58 154.287 1147.91 170.818 1083.6 195.82C981.676 235.445 891.528 292.216 804.345 347.116C785.402 359.047 765.815 371.381 746.396 383.358C701.959 410.58 649.305 442.283 595.656 471.025C538.014 501.914 485.594 526.057 435.409 544.834C420.073 550.575 404.893 555.817 390.29 560.421C331.818 578.826 271.691 590.853 211.58 596.171C153.158 601.336 92.8778 600.334 32.3977 593.187C27.5133 592.611 22.5481 591.928 17.7443 591.264L15.0371 590.891C-49.3712 582.063 -115.7 565.52 -176.775 543.049C-207.975 531.567 -237.604 518.622 -264.834 504.572C-293.015 490.026 -318.663 474.278 -341.054 457.762L-340.278 456.89C-252.503 521.629 -119.605 571.311 15.2329 589.789L17.9402 590.161C22.7363 590.822 27.6975 591.505 32.5704 592.081C90.2665 598.901 147.536 600.05 203.98 595.557C267.129 590.534 329.253 578.457 389.906 559.365C404.486 554.768 419.646 549.53 434.96 543.801C547.203 501.803 654.224 438.485 745.724 382.433C765.135 370.46 784.719 358.126 803.662 346.199C847.292 318.723 892.404 290.311 938.415 264.41C990.013 235.361 1037.35 212.59 1083.13 194.791C1114.36 182.649 1146.5 172.346 1178.66 164.167C1212.07 155.669 1245.71 149.414 1278.65 145.574C1285.52 144.783 1292.34 144.119 1299.09 143.581Z" fill="url(#paint9_linear_3556_48640)"/>
</g>
<mask id="mask10_3556_48640" style="mask-type:luminance" maskUnits="userSpaceOnUse" x="0" y="0" width="1920" height="1152">
<path d="M0 1152H1920V0H0V1152Z" fill="white"/>
</mask>
<g mask="url(#mask10_3556_48640)">
<path d="M1300.55 131.257C1324.35 129.363 1347.34 129.114 1369.2 130.523C1401.92 132.631 1431.17 138.43 1456.13 147.757C1486.05 158.939 1510.61 175.474 1529.13 196.901C1545.92 216.328 1557.31 239.168 1562.98 264.789C1564.69 272.507 1565.78 280.782 1566.41 290.832C1569.3 337.211 1556.81 383.491 1544.74 428.25C1541.7 439.512 1538.83 450.153 1536.21 460.763C1530.82 482.593 1528.41 501.183 1528.84 517.595C1529.3 535.136 1532.42 557.616 1552.62 575.921C1583.86 604.233 1649.96 616.721 1721.03 607.739C1730.79 606.506 1741.36 604.598 1753.36 601.906C1834.31 583.908 1909.43 544.179 1975.7 509.132L1976.27 510.053C1938.29 530.14 1903.95 548.054 1868.19 563.886C1826.72 582.249 1789.24 595.025 1753.62 602.943C1741.58 605.642 1730.97 607.555 1721.16 608.795C1687.23 613.084 1653.62 612.57 1623.95 607.301C1592.72 601.756 1567.77 591.169 1551.78 576.685C1542.97 568.702 1536.79 559.601 1532.89 548.86C1529.65 539.94 1527.99 530.017 1527.67 517.637C1527.23 501.137 1529.65 482.459 1535.06 460.544C1537.69 449.923 1540.56 439.278 1543.6 428.012C1555.65 383.333 1568.11 337.13 1565.23 290.912C1564.61 280.917 1563.53 272.691 1561.83 265.019C1549.9 211.171 1512.2 169.879 1455.66 148.752C1408.13 130.988 1343.42 126.165 1273.46 135.158C1210.89 143.322 1146.33 160.594 1086.75 185.105C988.854 225.39 903.429 283.063 820.815 338.839C800.69 352.425 779.881 366.476 759.195 380.069C719.355 406.074 666.632 439.804 612.077 470.094C555.64 501.429 503.846 525.578 453.742 543.922C438.551 549.482 423.448 554.52 408.841 558.894C351.241 576.117 291.402 586.465 230.98 589.656C173.779 592.679 114.259 589.372 54.0712 579.83C49.4209 579.093 44.6938 578.256 40.1282 577.441L37.0254 576.892C-91.0347 554.267 -222.083 502.531 -313.524 438.499L-312.806 437.65C-221.499 501.586 -90.6316 553.249 37.2635 575.844L40.37 576.393C44.9319 577.203 49.6512 578.04 54.29 578.778C177.589 598.32 296.759 591.288 408.495 557.877C423.076 553.511 438.156 548.48 453.324 542.928C562.115 503.103 664.305 440.699 758.527 379.201C779.205 365.612 800.01 351.565 820.132 337.979C861.473 310.066 904.224 281.205 947.989 254.885C997.071 225.367 1042.31 202.224 1086.29 184.129C1115.78 171.991 1146.46 161.604 1177.48 153.252C1209.28 144.689 1241.52 138.245 1273.31 134.098C1282.5 132.915 1291.58 131.967 1300.55 131.257Z" fill="url(#paint10_linear_3556_48640)"/>
</g>
<mask id="mask11_3556_48640" style="mask-type:luminance" maskUnits="userSpaceOnUse" x="0" y="0" width="1920" height="1152">
<path d="M0 1152H1920V0H0V1152Z" fill="white"/>
</mask>
<g mask="url(#mask11_3556_48640)">
<path d="M1302.02 118.806C1321.94 117.22 1341.28 116.852 1359.8 117.716C1391.18 119.175 1419.41 124.159 1443.71 132.53C1472.53 142.457 1496.64 157.421 1515.38 177.009C1532.39 194.796 1544.63 215.95 1551.75 239.885C1553.85 246.958 1555.46 254.711 1556.8 264.292C1562.71 306.402 1555.45 348.987 1548.44 390.167C1546.34 402.528 1544.35 414.206 1542.74 425.73C1539.91 446.02 1539.6 463.396 1541.8 478.86C1544.23 495.952 1549.44 515.555 1569.64 531.326C1585.89 544.009 1610.22 552.834 1640.01 556.843C1668.47 560.675 1700.35 559.984 1732.21 554.846C1741.51 553.344 1751.26 551.24 1762.9 548.218C1839.63 528.446 1910.13 488.253 1972.32 452.79L1972.9 453.65C1937.26 473.972 1905.01 492.116 1871.34 508.336C1832.32 527.133 1796.94 540.5 1763.19 549.197C1751.52 552.227 1741.73 554.343 1732.38 555.848C1700.41 561.005 1668.41 561.696 1639.83 557.849C1609.84 553.813 1585.31 544.908 1568.91 532.101C1560 525.151 1553.4 517.064 1548.72 507.38C1544.86 499.389 1542.31 490.372 1540.69 479.006C1538.48 463.458 1538.79 445.993 1541.63 425.614C1543.24 414.075 1545.23 402.394 1547.34 390.025C1554.34 348.91 1561.57 306.398 1555.69 264.434C1554.35 254.903 1552.75 247.193 1550.67 240.165C1535.77 190.088 1497.64 152.199 1443.3 133.479C1397.04 117.547 1334.84 114.045 1268.15 123.621C1207.48 132.453 1145.86 150.006 1089.93 174.375C995.578 215.49 914.408 274.226 835.911 331.031C815.06 346.119 793.502 361.721 772.005 376.77C733.92 403.254 683.194 437.687 628.505 469.149C573.224 500.951 522.06 525.109 472.082 542.996C457.026 548.383 441.992 553.218 427.404 557.353C370.557 573.451 311.002 582.121 250.395 583.127C194.347 584.057 135.591 578.45 75.7559 566.466C71.2555 565.563 66.6936 564.565 62.2814 563.597C61.1947 563.359 60.108 563.121 59.0214 562.883C-0.679077 549.869 -63.8702 529.774 -123.713 504.768C-182.818 480.073 -238.932 450.494 -285.991 419.229L-285.327 418.403C-189.434 482.116 -60.6024 535.757 59.2939 561.892C60.3807 562.13 61.4713 562.368 62.558 562.606C66.9663 563.57 71.5205 564.573 76.0094 565.471C152.495 580.793 224.971 585.693 294.882 580.128C339.879 576.55 383.805 568.639 427.085 556.382C441.65 552.25 456.653 547.427 471.687 542.047C581.803 502.637 680.779 438.932 771.333 375.963C792.818 360.922 814.376 345.324 835.224 330.237C874.507 301.809 915.126 272.414 956.879 245.599C1003.71 215.524 1047.07 191.927 1089.45 173.457C1145.48 149.042 1207.22 131.463 1267.98 122.615C1279.49 120.964 1290.85 119.693 1302.02 118.806Z" fill="url(#paint11_linear_3556_48640)"/>
</g>
<mask id="mask12_3556_48640" style="mask-type:luminance" maskUnits="userSpaceOnUse" x="0" y="0" width="1920" height="1152">
<path d="M0 1152H1920V0H0V1152Z" fill="white"/>
</mask>
<g mask="url(#mask12_3556_48640)">
<path d="M1303.48 106.23C1319.57 104.951 1335.25 104.51 1350.39 104.921C1380.43 105.735 1407.64 109.901 1431.28 117.308C1459.01 125.994 1482.67 139.392 1501.61 157.133C1518.86 173.292 1531.95 192.761 1540.5 214.994C1542.98 221.445 1545.1 228.68 1547.18 237.762C1555.8 275.501 1553.42 314.239 1551.12 351.706C1550.28 365.322 1549.49 378.183 1549.25 390.709C1548.89 409.513 1550.68 425.683 1554.74 440.137C1559.09 455.643 1566.28 473.307 1586.66 486.747C1619.58 508.466 1681.09 514.441 1743.38 501.973C1752.12 500.222 1761.35 497.864 1772.43 494.546C1844.92 473 1910.81 432.342 1968.94 396.469L1969.52 397.267C1936.21 417.827 1906.06 436.197 1874.48 452.802C1837.91 472.032 1804.63 485.987 1772.74 495.464C1761.63 498.793 1752.37 501.159 1743.59 502.917C1713.58 508.927 1683.19 510.82 1655.71 508.393C1626.97 505.855 1602.87 498.643 1586.03 487.53C1577.04 481.598 1570.01 474.521 1564.55 465.904C1560.05 458.811 1556.61 450.705 1553.71 440.387C1549.64 425.845 1547.83 409.594 1548.19 390.701C1548.43 378.156 1549.23 365.288 1550.06 351.664C1552.36 314.262 1554.73 275.586 1546.13 237.973C1544.07 228.933 1541.96 221.737 1539.49 215.324C1526.9 182.6 1497.85 139.185 1430.92 118.219C1373.24 100.151 1307.67 104.917 1262.82 112.098C1204.26 121.59 1145.57 139.423 1093.09 163.661C1001.95 205.755 924.68 265.674 849.95 323.62C828.719 340.086 806.762 357.109 784.805 373.482C701.807 434.976 601.928 503.098 490.415 542.082C475.489 547.3 460.532 551.923 445.959 555.825C417.224 563.505 387.503 569.138 357.624 572.567C329.047 575.847 299.498 577.206 269.807 576.603C214.837 575.49 156.845 567.583 97.4407 553.106C93.0439 552.035 88.5857 550.867 84.281 549.735C83.1943 549.45 82.1077 549.166 81.021 548.882C23.2482 533.799 -36.7058 512.521 -97.1782 485.645C-153.315 460.697 -209.083 431.067 -258.454 399.963L-257.844 399.164C-154.079 464.537 -30.4543 518.765 81.3281 547.949C82.4148 548.233 83.5015 548.517 84.5881 548.802C88.8928 549.931 93.3434 551.098 97.7286 552.165C223.769 582.885 337.583 583.776 445.679 554.892C460.225 550.998 475.155 546.382 490.054 541.171C601.425 502.238 701.219 434.174 784.148 372.73C806.097 356.364 828.051 339.341 849.278 322.879C886.672 293.883 925.341 263.897 965.258 236.521C1010.02 205.817 1051.69 181.701 1092.63 162.789C1145.2 138.505 1203.99 120.645 1262.65 111.134C1276.49 108.933 1290.13 107.29 1303.48 106.23Z" fill="url(#paint12_linear_3556_48640)"/>
</g>
<mask id="mask13_3556_48640" style="mask-type:luminance" maskUnits="userSpaceOnUse" x="0" y="0" width="1920" height="1152">
<path d="M0 1152H1920V0H0V1152Z" fill="white"/>
</mask>
<g mask="url(#mask13_3556_48640)">
<path d="M1304.93 93.4892C1317.22 92.5099 1329.26 92.053 1340.99 92.1259C1369.67 92.2987 1395.87 95.6473 1418.86 102.079C1470.06 116.402 1508.23 146.838 1529.26 190.096C1532.15 196.044 1534.71 202.561 1537.57 211.227C1548.55 244.601 1550.57 279.422 1552.52 313.095C1553.38 328.036 1554.2 342.148 1555.78 355.673C1557.81 373.083 1561.71 388.044 1567.69 401.403C1573.9 415.262 1583.04 430.941 1603.69 442.161C1637.97 460.774 1695.78 463.427 1754.57 449.089C1762.77 447.088 1771.49 444.473 1781.98 440.863C1850.22 417.551 1911.51 376.42 1965.58 340.132L1966.16 340.87C1912.04 377.192 1850.69 418.361 1782.32 441.72C1771.8 445.341 1763.05 447.963 1754.81 449.976C1726.74 456.822 1697.98 459.91 1671.62 458.907C1644.14 457.863 1620.47 452.345 1603.17 442.952C1594.08 438.018 1586.63 431.951 1580.38 424.413C1575.22 418.184 1570.89 410.984 1566.76 401.761C1560.74 388.321 1556.82 373.279 1554.78 355.78C1553.2 342.233 1552.38 328.105 1551.51 313.152C1549.57 279.533 1547.55 244.766 1536.6 211.496C1533.76 202.868 1531.21 196.382 1528.33 190.472C1507.43 147.46 1469.46 117.194 1418.55 102.951C1362.46 87.2569 1300.01 92.9938 1257.5 100.566C1201.23 110.712 1145.47 128.821 1096.26 152.94C1008.08 196.152 934.425 257.342 863.193 316.516C841.843 334.253 819.767 352.593 797.614 370.188C746.365 410.654 703.069 441.505 661.355 467.279C608.298 500.061 558.385 524.226 508.761 541.156C493.954 546.21 479.07 550.626 464.524 554.285C435.978 561.455 406.368 566.393 376.523 568.962C348.184 571.4 318.815 571.773 289.232 570.064C235.265 566.953 178.037 556.751 119.135 539.739C114.777 538.48 110.369 537.128 106.103 535.815L103.027 534.87C48.4294 518.159 -9.99988 495.161 -70.6411 466.518C-123.019 441.777 -176.944 412.9 -230.915 380.69L-230.358 379.919C-148.881 428.548 -24.8453 494.754 103.361 533.999L106.437 534.943C110.695 536.253 115.1 537.604 119.45 538.86C245.491 575.263 358.283 580.017 464.275 553.398C478.79 549.746 493.643 545.338 508.423 540.292C621.154 501.831 721.839 428.809 796.965 369.493C819.11 351.906 841.182 333.566 862.529 315.833C898.176 286.223 935.032 255.602 973.244 227.617C1016.1 196.228 1056.19 171.533 1095.8 152.122C1145.1 127.961 1200.96 109.817 1257.33 99.6562C1273.5 96.7877 1289.42 94.7218 1304.93 93.4892Z" fill="url(#paint13_linear_3556_48640)"/>
</g>
<mask id="mask14_3556_48640" style="mask-type:luminance" maskUnits="userSpaceOnUse" x="0" y="0" width="1920" height="1152">
<path d="M0 1152H1920V0H0V1152Z" fill="white"/>
</mask>
<g mask="url(#mask14_3556_48640)">
<path d="M1306.54 80.5394C1343.27 77.6172 1377.15 79.7176 1406.44 86.86C1432.04 93.1 1454.79 103.38 1474.07 117.407C1491.86 130.356 1506.65 146.438 1518.01 165.208C1522.2 172.127 1525.52 179.262 1527.94 184.703C1540.91 213.837 1546.76 244.784 1552.42 274.705C1555.48 290.929 1558.38 306.255 1562.28 320.655C1566.67 336.79 1572.66 350.538 1580.62 362.691C1588.12 374.138 1599.46 388.446 1620.71 397.593C1655.81 412.696 1711.38 412.169 1765.74 396.218C1773.45 393.956 1781.64 391.088 1791.52 387.194C1855.47 362.123 1912.17 320.52 1962.2 283.814L1962.79 284.49C1912.71 321.231 1855.95 362.872 1791.88 387.993C1781.97 391.902 1773.75 394.778 1766.02 397.048C1711.44 413.064 1655.6 413.575 1620.3 398.384C1598.81 389.137 1587.37 374.695 1579.8 363.148C1571.79 350.921 1565.76 337.098 1561.36 320.877C1557.44 306.447 1554.54 291.11 1551.48 274.87C1545.83 244.991 1539.99 214.091 1527.06 185.045C1524.65 179.623 1521.34 172.523 1517.17 165.642C1493.53 126.596 1455.15 99.6433 1406.18 87.7048C1363.01 77.1794 1309.75 77.644 1252.18 89.0565C1198.36 99.8354 1145.54 118.225 1099.43 142.24C1014.04 186.704 943.76 249.234 875.8 309.707C854.538 328.626 832.554 348.187 810.417 366.923C761.28 408.287 719.132 439.887 677.779 466.367C625.805 499.652 576.518 523.821 527.101 540.264C512.409 545.153 497.602 549.361 483.087 552.779C454.714 559.449 425.215 563.688 395.42 565.389C367.307 566.991 338.112 566.376 308.651 563.558C281.069 560.92 252.434 556.273 223.538 549.745C196.765 543.697 168.937 535.844 140.824 526.406C136.424 524.927 131.981 523.357 127.684 521.836L125.03 520.899C73.463 502.686 18.1362 478.655 -44.114 447.436C-99.4446 419.688 -153.362 389.713 -203.386 361.451L-202.879 360.71C-103.634 416.778 11.7618 479.957 125.384 520.085L128.037 521.026C132.33 522.546 136.773 524.117 141.162 525.592C266.911 567.805 378.682 576.425 482.861 551.942C497.341 548.532 512.122 544.331 526.783 539.45C640.043 501.772 737.51 427.119 809.771 366.289C831.897 347.565 853.878 328.004 875.136 309.089C909.143 278.829 944.306 247.541 980.92 218.906C1021.99 186.785 1060.6 161.464 1098.96 141.488C1145.16 117.43 1198.08 99.0059 1251.98 88.2079C1270.69 84.4946 1288.95 81.9371 1306.54 80.5394Z" fill="url(#paint14_linear_3556_48640)"/>
</g>
<mask id="mask15_3556_48640" style="mask-type:luminance" maskUnits="userSpaceOnUse" x="0" y="0" width="1920" height="1152">
<path d="M0 1152H1920V0H0V1152Z" fill="white"/>
</mask>
<g mask="url(#mask15_3556_48640)">
<path d="M1307.79 67.4344C1339.02 64.9499 1368.18 66.3362 1394.02 71.6353C1418.6 76.6734 1440.89 85.3979 1460.28 97.563C1478.41 108.929 1494.04 123.318 1506.76 140.318C1511.47 146.615 1515.41 153.17 1518.31 158.177C1532.92 183.337 1542.01 210.578 1550.8 236.92C1556.58 254.239 1562.03 270.601 1568.79 285.635C1575.52 300.618 1583.62 313.16 1593.55 323.977C1606.92 338.542 1620.55 347.497 1637.74 353.023C1673.6 364.547 1726.93 360.837 1776.93 343.342C1784.17 340.808 1791.84 337.686 1801.06 333.519C1860.7 306.705 1912.83 264.618 1958.83 227.486L1959.41 228.096C1913.38 265.263 1861.19 307.388 1801.44 334.253C1792.2 338.431 1784.51 341.564 1777.23 344.106C1752.99 352.589 1727.47 358.042 1703.44 359.858C1678.48 361.751 1655.66 359.655 1637.43 353.795C1620.08 348.219 1606.34 339.187 1592.86 324.507C1582.87 313.624 1574.72 301.014 1567.95 285.949C1561.18 270.878 1555.72 254.5 1549.94 237.162C1541.16 210.858 1532.09 183.656 1517.52 158.565C1514.62 153.577 1510.7 147.045 1506.01 140.782C1479.81 105.746 1441.01 82.1109 1393.81 72.4302C1351.82 63.821 1301 65.5797 1246.85 77.5182C1195.66 88.9077 1145.78 107.578 1102.59 131.512C1019.85 177.358 952.762 241.29 887.885 303.114C866.88 323.132 845.157 343.83 823.212 363.625C776.752 405.335 734.554 438.636 694.196 465.427C643.292 499.219 594.632 523.396 545.434 539.34C530.857 544.063 516.123 548.068 501.643 551.24C473.43 557.411 444.046 560.959 414.313 561.781C386.408 562.552 357.393 560.947 328.074 557.011C300.807 553.348 272.468 547.561 243.836 539.804C217.548 532.685 190.188 523.676 162.509 513.036C157.939 511.277 153.328 509.422 148.873 507.625L147.03 506.884C62.431 472.835 -20.7588 427.085 -101.211 382.84C-126.981 368.667 -151.319 355.285 -175.86 342.171L-175.399 341.461C-150.854 354.574 -126.512 367.96 -100.738 382.134C-20.3094 426.367 62.8533 472.101 147.402 506.131L149.246 506.872C153.7 508.666 158.304 510.52 162.87 512.275C288.054 560.406 398.8 572.89 501.447 550.437C515.893 547.273 530.596 543.276 545.142 538.56C658.795 501.731 753.109 425.414 822.582 363.041C844.516 343.258 866.231 322.564 887.236 302.55C919.696 271.619 953.265 239.631 988.374 210.302C1027.75 177.404 1064.96 151.404 1102.13 130.81C1145.4 106.833 1195.37 88.1281 1246.65 76.7195C1267.63 72.1 1288.12 69.0011 1307.79 67.4344Z" fill="url(#paint15_linear_3556_48640)"/>
</g>
<mask id="mask16_3556_48640" style="mask-type:luminance" maskUnits="userSpaceOnUse" x="0" y="0" width="1920" height="1152">
<path d="M0 1152H1920V0H0V1152Z" fill="white"/>
</mask>
<g mask="url(#mask16_3556_48640)">
<path d="M1309.11 54.0819C1334.93 52.0276 1359.37 52.7878 1381.6 56.4128C1405.2 60.2643 1427.03 67.4374 1446.49 77.7401C1465.01 87.5398 1481.5 100.22 1495.51 115.434C1499.64 119.923 1503.7 124.926 1508.69 131.658C1524.65 153.223 1536.43 177.062 1547.83 200.113C1556.78 218.207 1565.23 235.295 1575.28 250.625C1584.42 264.568 1594.63 275.903 1606.48 285.281C1621.59 297.242 1636.94 304.607 1654.76 308.459C1691.83 316.465 1741.68 309.738 1788.11 290.468C1794.94 287.631 1802.09 284.255 1810.6 279.843C1865.9 251.304 1913.48 208.726 1955.46 171.156L1956.05 171.701C1914.03 209.302 1866.41 251.923 1811.01 280.511C1802.48 284.935 1795.31 288.318 1788.45 291.167C1741.85 310.506 1691.8 317.249 1654.56 309.208C1636.6 305.325 1621.14 297.91 1605.92 285.864C1594 276.433 1583.75 265.036 1574.56 251.024C1564.48 235.656 1556.02 218.549 1547.07 200.436C1535.69 177.415 1523.91 153.607 1507.99 132.092C1503.03 125.383 1498.98 120.399 1494.86 115.933C1465.92 84.4985 1427.76 64.7302 1381.44 57.1692C1340.59 50.503 1292.21 53.5559 1241.53 65.9936C1193.13 77.9591 1146.18 96.9095 1105.76 120.798C1025.59 168.165 961.521 233.544 899.555 296.77C878.938 317.805 857.623 339.559 836.015 360.341C791.509 402.984 750.494 437.057 710.62 464.497C686.996 480.756 663.223 495.029 639.96 506.925C614.643 519.87 589.011 530.468 563.778 538.425C549.313 542.987 534.652 546.785 520.209 549.711C492.158 555.386 462.894 558.228 433.233 558.155C405.555 558.086 376.724 555.478 347.548 550.402C295.569 541.359 242.14 524.766 184.209 499.679C179.056 497.425 173.887 495.087 169.041 492.883C106.353 464.417 44.2184 429.227 -15.8661 395.197C-59.3196 370.59 -104.251 345.142 -148.327 322.901L-147.912 322.225C-103.817 344.474 -58.8779 369.926 -15.4169 394.54C44.6523 428.559 106.768 463.737 169.425 492.191C174.271 494.392 179.432 496.73 184.582 498.98C309.39 553.028 419.118 569.375 520.037 548.958C534.448 546.04 549.075 542.25 563.509 537.695C678.736 501.361 773.868 418.774 835.4 359.815C856.997 339.044 878.312 317.295 898.926 296.263C929.926 264.633 961.978 231.924 995.651 201.872C1033.43 168.161 1069.29 141.434 1105.29 120.157C1145.8 96.2259 1192.83 77.2409 1241.32 65.2524C1264.56 59.55 1287.33 55.8138 1309.11 54.0819Z" fill="url(#paint16_linear_3556_48640)"/>
</g>
<mask id="mask17_3556_48640" style="mask-type:luminance" maskUnits="userSpaceOnUse" x="0" y="0" width="1920" height="1152">
<path d="M0 1152H1920V0H0V1152Z" fill="white"/>
</mask>
<g mask="url(#mask17_3556_48640)">
<path d="M1310.63 40.4201C1331.13 38.7881 1350.81 39.03 1369.18 41.192C1391.86 43.8646 1413.24 49.4978 1432.71 57.9381C1451.69 66.1711 1469.03 77.142 1484.26 90.5513C1488.87 94.6217 1493.58 99.2566 1499.06 105.139C1516.22 123.564 1530.29 144.403 1543.89 164.556C1556.34 182.988 1568.09 200.398 1581.77 215.62C1593.42 228.588 1605.73 238.718 1619.4 246.59C1635.91 256.098 1653.05 261.762 1671.79 263.897C1709.92 268.243 1756.39 258.655 1799.29 237.593C1805.69 234.451 1812.51 230.711 1820.14 226.169C1871.07 195.944 1914.11 152.851 1952.09 114.828L1952.67 115.312C1914.66 153.366 1871.58 196.493 1820.57 226.771C1812.92 231.326 1806.08 235.073 1799.65 238.226C1779.11 248.31 1756.83 256.067 1735.22 260.652C1712.44 265.486 1691.06 266.819 1671.68 264.611C1652.82 262.46 1635.58 256.766 1618.97 247.2C1605.23 239.286 1592.86 229.106 1581.16 216.081C1567.45 200.821 1555.68 183.391 1543.22 164.94C1529.63 144.81 1515.58 123.994 1498.46 105.612C1493 99.7481 1488.31 95.1285 1483.71 91.0735C1452.69 63.7519 1414.12 47.2092 1369.07 41.9061C1329.31 37.2252 1283.37 41.5683 1236.21 54.4707C1190.75 66.9699 1146.74 86.2005 1108.92 110.085C1031.28 159.114 970.072 225.988 910.874 290.661C890.76 312.638 869.959 335.363 848.812 357.059C806.215 400.651 766.383 435.491 727.042 463.569C703.917 480.069 680.543 494.481 657.561 506.4C632.582 519.356 607.199 529.824 582.116 537.508C567.759 541.909 553.174 545.499 538.774 548.179C510.857 553.367 481.712 555.514 452.136 554.562C424.634 553.675 395.984 550.084 366.98 543.882C340.323 538.184 312.575 530.108 284.505 519.886C259.146 510.651 232.703 499.358 205.908 486.321C200.501 483.671 195.129 480.956 191.051 478.883C142.383 454.146 94.1484 425.273 47.5039 397.352C-7.03174 364.708 -63.422 330.951 -120.803 303.637L-120.431 302.995C-63.0151 330.325 -6.60925 364.094 47.9418 396.749C94.5747 424.666 142.794 453.531 191.439 478.253C195.513 480.323 200.881 483.042 206.284 485.687C329.925 545.849 438.631 566.058 538.621 547.477C552.99 544.804 567.544 541.221 581.867 536.828C669.734 509.898 754.367 452.625 848.213 356.587C869.348 334.898 890.146 312.177 910.26 290.204C939.874 257.852 970.49 224.402 1002.8 193.59C1039.03 159.026 1073.59 131.52 1108.47 109.498C1146.35 85.5708 1190.45 66.3055 1235.98 53.7833C1261.48 46.8099 1286.62 42.3324 1310.63 40.4201Z" fill="url(#paint17_linear_3556_48640)"/>
</g>
<mask id="mask18_3556_48640" style="mask-type:luminance" maskUnits="userSpaceOnUse" x="0" y="0" width="1920" height="1152">
<path d="M0 1152H1920V0H0V1152Z" fill="white"/>
</mask>
<g mask="url(#mask18_3556_48640)">
<path d="M1312.63 26.3557C1327.83 25.1461 1342.6 25.0117 1356.76 25.9755C1400.91 28.9861 1440.02 42.3455 1473 65.6812C1478.3 69.4559 1483.67 73.6953 1489.43 78.6335C1507.77 94.3813 1523.88 112.675 1539.47 130.37C1555.58 148.66 1570.8 165.932 1588.26 180.635C1602.53 192.647 1616.94 201.571 1632.33 207.919C1649.98 215.199 1668.99 219.043 1688.82 219.343C1727.24 219.926 1771.58 207.304 1810.48 184.721C1816.61 181.162 1822.9 177.16 1829.69 172.498C1876.23 140.626 1914.74 96.9964 1948.72 58.5043L1949.29 58.9228C1915.29 97.4456 1876.74 141.11 1830.13 173.032C1823.32 177.706 1817.02 181.714 1810.87 185.286C1791.83 196.337 1771.71 204.989 1751.06 211.002C1729.5 217.281 1708.55 220.314 1688.8 220.015C1668.87 219.711 1649.76 215.848 1632.03 208.529C1616.57 202.151 1602.09 193.188 1587.76 181.127C1570.26 166.393 1555.03 149.098 1538.9 130.792C1523.33 113.117 1507.23 94.8383 1488.92 79.1212C1483.18 74.1945 1477.83 69.9704 1472.55 66.2072C1439.68 42.9522 1400.7 29.639 1356.69 26.64C1317.95 23.998 1274.45 29.6351 1230.88 42.9446C1188.52 55.9199 1147.44 75.4309 1112.08 99.3695C1036.96 150.215 978.462 218.632 921.888 284.795C902.365 307.628 882.178 331.233 861.603 353.777C820.884 398.325 782.238 433.937 743.458 462.641C720.833 479.387 697.854 493.933 675.16 505.88C650.519 518.847 625.382 529.185 600.456 536.6C586.206 540.839 571.699 544.222 557.337 546.653C529.551 551.357 500.517 552.808 471.041 550.973C443.708 549.272 415.234 544.694 386.411 537.368C360.011 530.655 332.559 521.443 304.815 509.985C279.851 499.674 253.873 487.221 227.608 472.971C222.808 470.36 217.916 467.637 213.066 464.888C173.679 442.7 134.78 417.748 97.163 393.617C36.4103 354.649 -26.4082 314.356 -93.2703 284.369L-92.9399 283.766C-26.024 313.772 36.8175 354.084 97.5894 393.064C135.198 417.187 174.09 442.136 213.457 464.312C218.303 467.061 223.196 469.776 227.992 472.387C350.25 538.715 457.939 562.792 557.21 545.992C571.537 543.565 586.014 540.19 600.234 535.958C687.01 510.142 772.32 450.411 861.039 353.351C881.606 330.818 901.789 307.213 921.308 284.388C949.605 251.295 978.865 217.077 1009.85 185.466C1044.61 150.008 1077.91 121.668 1111.64 98.8319C1147.07 74.8511 1188.22 55.3055 1230.66 42.3071C1258.4 33.8361 1286.14 28.4639 1312.63 26.3557Z" fill="url(#paint18_linear_3556_48640)"/>
</g>
<mask id="mask19_3556_48640" style="mask-type:luminance" maskUnits="userSpaceOnUse" x="0" y="0" width="1920" height="1152">
<path d="M0 1152H1920V0H0V1152Z" fill="white"/>
</mask>
<g mask="url(#mask19_3556_48640)">
<path d="M1315.39 11.7173C1370 7.37042 1420.12 17.2623 1461.75 40.813C1488.8 56.1154 1512.32 77.1432 1535.07 97.476C1567.67 126.625 1601.39 156.769 1645.27 169.257C1699.33 184.636 1765.27 170.655 1821.67 131.852C1872.48 96.8885 1909.53 48.7426 1945.36 2.17871L1945.92 2.53204C1910.06 49.1343 1872.98 97.3224 1822.07 132.347C1795.86 150.383 1766.45 163.57 1737.04 170.478C1721.38 174.157 1705.83 176.023 1690.81 176.035C1674.91 176.046 1659.52 173.965 1645.07 169.852C1625.3 164.227 1605.91 154.581 1585.8 140.357C1567.86 127.67 1550.95 112.548 1534.59 97.9253C1511.87 77.6117 1488.38 56.6107 1461.4 41.3429C1416.58 15.9912 1366.02 7.93109 1315.55 11.9478C1242.92 17.7269 1170.43 48.4777 1115.24 88.6556C1042.67 141.486 986.738 211.501 932.644 279.208C913.797 302.797 894.309 327.192 874.402 350.494C829.678 402.856 786.505 443.448 742.41 474.587C716.498 492.888 689.99 507.991 663.625 519.473C634.867 531.999 605.357 540.627 575.908 545.116C546.935 549.536 516.603 550.154 485.752 546.963C457.336 544.022 427.722 537.767 397.724 528.37C370.479 519.834 342.17 508.471 313.585 494.593C288.157 482.248 261.745 467.541 235.088 450.883C202.878 430.753 171.141 408.8 140.451 387.565C75.8203 342.852 8.98901 296.618 -65.7413 265.096L-65.4493 264.531C9.34619 296.081 76.2081 342.337 140.866 387.07C171.552 408.297 203.282 430.25 235.476 450.368C360.126 528.263 474.631 559.935 575.8 544.506C677.952 528.927 775.449 465.344 873.865 350.117C893.764 326.82 913.248 302.432 932.091 278.847C959.143 244.986 987.118 209.973 1016.84 177.525C1050.18 141.125 1082.23 111.895 1114.82 88.1717C1165.44 51.3154 1226.08 25.4837 1285.58 15.4344C1295.64 13.7371 1305.58 12.5007 1315.39 11.7173Z" fill="url(#paint19_linear_3556_48640)"/>
</g>
</g>
<defs>
<linearGradient id="paint0_linear_3556_48640" x1="2009.9" y1="694.348" x2="-588.942" y2="694.348" gradientUnits="userSpaceOnUse">
<stop stop-color="#120A8F"/>
<stop offset="1" stop-color="#00CCCC"/>
</linearGradient>
<linearGradient id="paint1_linear_3556_48640" x1="2006.63" y1="661.75" x2="-561.299" y2="661.75" gradientUnits="userSpaceOnUse">
<stop stop-color="#120A8F"/>
<stop offset="1" stop-color="#00CCCC"/>
</linearGradient>
<linearGradient id="paint2_linear_3556_48640" x1="2003.15" y1="629.143" x2="-533.881" y2="629.143" gradientUnits="userSpaceOnUse">
<stop stop-color="#120A8F"/>
<stop offset="1" stop-color="#00CCCC"/>
</linearGradient>
<linearGradient id="paint3_linear_3556_48640" x1="1999.88" y1="596.638" x2="-506.238" y2="596.638" gradientUnits="userSpaceOnUse">
<stop stop-color="#120A8F"/>
<stop offset="1" stop-color="#00CCCC"/>
</linearGradient>
<linearGradient id="paint4_linear_3556_48640" x1="1996.52" y1="564.116" x2="-478.695" y2="564.116" gradientUnits="userSpaceOnUse">
<stop stop-color="#120A8F"/>
<stop offset="1" stop-color="#00CCCC"/>
</linearGradient>
<linearGradient id="paint5_linear_3556_48640" x1="1993.06" y1="531.705" x2="-451.245" y2="531.705" gradientUnits="userSpaceOnUse">
<stop stop-color="#120A8F"/>
<stop offset="1" stop-color="#00CCCC"/>
</linearGradient>
<linearGradient id="paint6_linear_3556_48640" x1="1989.67" y1="499.261" x2="-423.732" y2="499.261" gradientUnits="userSpaceOnUse">
<stop stop-color="#120A8F"/>
<stop offset="1" stop-color="#00CCCC"/>
</linearGradient>
<linearGradient id="paint7_linear_3556_48640" x1="1986.34" y1="467.022" x2="-396.156" y2="467.022" gradientUnits="userSpaceOnUse">
<stop stop-color="#120A8F"/>
<stop offset="1" stop-color="#00CCCC"/>
</linearGradient>
<linearGradient id="paint8_linear_3556_48640" x1="1983.04" y1="434.768" x2="-368.55" y2="434.768" gradientUnits="userSpaceOnUse">
<stop stop-color="#120A8F"/>
<stop offset="1" stop-color="#00CCCC"/>
</linearGradient>
<linearGradient id="paint9_linear_3556_48640" x1="1979.55" y1="402.627" x2="-341.135" y2="402.627" gradientUnits="userSpaceOnUse">
<stop stop-color="#120A8F"/>
<stop offset="1" stop-color="#00CCCC"/>
</linearGradient>
<linearGradient id="paint10_linear_3556_48640" x1="1976.23" y1="370.638" x2="-313.561" y2="370.638" gradientUnits="userSpaceOnUse">
<stop stop-color="#120A8F"/>
<stop offset="1" stop-color="#00CCCC"/>
</linearGradient>
<linearGradient id="paint11_linear_3556_48640" x1="1972.93" y1="350.281" x2="-285.954" y2="350.281" gradientUnits="userSpaceOnUse">
<stop stop-color="#120A8F"/>
<stop offset="1" stop-color="#00CCCC"/>
</linearGradient>
<linearGradient id="paint12_linear_3556_48640" x1="1969.57" y1="340.762" x2="-258.412" y2="340.762" gradientUnits="userSpaceOnUse">
<stop stop-color="#120A8F"/>
<stop offset="1" stop-color="#00CCCC"/>
</linearGradient>
<linearGradient id="paint13_linear_3556_48640" x1="1966.11" y1="331.619" x2="-230.969" y2="331.619" gradientUnits="userSpaceOnUse">
<stop stop-color="#120A8F"/>
<stop offset="1" stop-color="#00CCCC"/>
</linearGradient>
<linearGradient id="paint14_linear_3556_48640" x1="1962.71" y1="322.77" x2="-203.46" y2="322.77" gradientUnits="userSpaceOnUse">
<stop stop-color="#120A8F"/>
<stop offset="1" stop-color="#00CCCC"/>
</linearGradient>
<linearGradient id="paint15_linear_3556_48640" x1="1959.45" y1="314.112" x2="-175.823" y2="314.112" gradientUnits="userSpaceOnUse">
<stop stop-color="#120A8F"/>
<stop offset="1" stop-color="#00CCCC"/>
</linearGradient>
<linearGradient id="paint16_linear_3556_48640" x1="1956.09" y1="305.548" x2="-148.281" y2="305.548" gradientUnits="userSpaceOnUse">
<stop stop-color="#120A8F"/>
<stop offset="1" stop-color="#00CCCC"/>
</linearGradient>
<linearGradient id="paint17_linear_3556_48640" x1="1952.63" y1="297.082" x2="-120.837" y2="297.082" gradientUnits="userSpaceOnUse">
<stop stop-color="#120A8F"/>
<stop offset="1" stop-color="#00CCCC"/>
</linearGradient>
<linearGradient id="paint18_linear_3556_48640" x1="1949.3" y1="288.539" x2="-93.2629" y2="288.539" gradientUnits="userSpaceOnUse">
<stop stop-color="#120A8F"/>
<stop offset="1" stop-color="#00CCCC"/>
</linearGradient>
<linearGradient id="paint19_linear_3556_48640" x1="1945.91" y1="275.598" x2="-65.7508" y2="275.598" gradientUnits="userSpaceOnUse">
<stop stop-color="#120A8F"/>
<stop offset="1" stop-color="#00CCCC"/>
</linearGradient>
<clipPath id="clip0_3556_48640">
<rect width="1920" height="1152" fill="white" transform="matrix(-1 0 0 -1 1920 1152)"/>
</clipPath>
</defs>
</svg>
